<svg xmlns="http://www.w3.org/2000/svg" version="1.0" width="2880.000000pt" height="1620.000000pt" viewBox="0 0 2880.000000 1620.000000" preserveAspectRatio="xMidYMid meet">

<g transform="translate(0.000000,1620.000000) scale(0.100000,-0.100000)" fill="#1e4730" stroke="none">
<path d="M13050 12042 c-8 -5 -39 -12 -68 -16 -56 -7 -71 -12 -172 -58 -70 -32 -97 -46 -175 -88 -27 -15 -72 -40 -100 -55 -27 -15 -54 -31 -59 -36 -6 -5 -19 -9 -31 -9 -12 0 -25 -4 -31 -9 -5 -6 -79 -12 -164 -15 -194 -6 -266 -13 -307 -32 -17 -8 -39 -14 -49 -14 -19 0 -79 -18 -106 -31 -10 -5 -23 -9 -30 -9 -36 0 -270 -133 -349 -197 -108 -89 -259 -239 -259 -258 0 -3 -16 -23 -35 -43 -19 -20 -35 -40 -35 -45 0 -4 -12 -26 -27 -50 -41 -64 -103 -189 -103 -207 0 -9 -4 -20 -8 -25 -11 -12 -47 -130 -63 -200 -20 -92 -35 -307 -27 -395 9 -108 27 -229 38 -255 4 -11 15 -42 23 -70 28 -90 40 -119 92 -225 52 -105 74 -140 152 -241 87 -113 299 -300 378 -333 18 -8 35 -19 39 -24 9 -15 141 -77 206 -97 30 -10 60 -21 65 -25 6 -4 24 -10 40 -13 17 -3 50 -11 75 -17 141 -34 418 -41 579 -15 127 21 293 57 306 66 6 4 22 10 35 13 33 7 87 27 129 49 19 9 39 17 45 17 15 0 209 93 249 119 18 11 77 50 132 86 55 36 111 73 125 82 44 32 232 183 279 226 89 80 327 324 421 431 52 60 120 136 151 170 31 33 63 73 70 88 8 14 38 51 67 81 28 31 52 58 52 62 0 4 22 30 49 58 26 29 64 70 82 92 85 101 338 344 458 441 13 10 28 24 35 29 6 6 36 28 66 50 30 22 60 43 65 47 86 66 437 258 473 258 7 0 20 4 30 10 27 16 104 41 142 47 19 3 40 9 45 13 6 4 26 10 45 13 19 4 53 10 75 16 73 17 294 34 367 27 138 -12 173 -17 193 -25 11 -5 52 -16 90 -25 39 -10 74 -22 80 -27 5 -5 16 -9 25 -9 19 0 137 -57 145 -70 3 -5 23 -17 43 -27 20 -9 46 -26 57 -36 11 -11 43 -36 70 -57 114 -84 227 -233 307 -400 90 -190 113 -293 111 -505 -1 -180 -14 -270 -57 -385 -10 -25 -20 -54 -23 -65 -8 -31 -53 -124 -63 -130 -5 -3 -19 -26 -31 -50 -37 -74 -129 -179 -261 -298 -52 -48 -305 -187 -338 -187 -9 0 -25 -7 -36 -15 -10 -8 -35 -15 -54 -15 -20 0 -40 -4 -45 -9 -29 -27 -350 -38 -495 -16 -170 26 -175 26 -184 36 -6 5 -27 9 -47 9 -21 0 -41 5 -44 10 -3 6 -15 10 -26 10 -10 0 -27 4 -37 9 -9 6 -42 18 -72 27 -30 10 -70 25 -88 36 -18 10 -41 18 -51 18 -11 0 -47 16 -81 35 -34 19 -64 34 -68 34 -14 -2 -52 14 -148 62 -54 27 -106 49 -117 49 -10 0 -27 4 -37 10 -38 20 -68 -15 -56 -66 10 -37 150 -178 225 -226 77 -49 308 -168 327 -168 6 0 29 -9 51 -19 21 -11 68 -28 106 -38 37 -10 67 -21 67 -25 0 -7 -24 -19 -126 -64 -16 -7 -49 -16 -72 -20 -24 -4 -45 -11 -48 -15 -14 -23 -301 -3 -328 22 -6 5 -20 9 -32 9 -26 0 -51 13 -119 59 -110 76 -160 126 -227 230 -9 14 -21 31 -25 36 -18 21 -99 192 -112 235 -7 25 -17 53 -22 62 -5 10 -9 24 -9 32 0 7 -7 27 -15 42 -8 16 -15 37 -15 46 0 9 -4 19 -9 22 -4 3 -11 27 -14 53 -3 27 -11 70 -17 97 -5 28 -7 53 -3 57 5 4 51 1 103 -7 60 -10 139 -13 215 -11 387 14 616 9 640 -14 5 -5 15 -9 22 -9 31 0 141 -61 184 -102 56 -52 119 -141 119 -167 0 -11 5 -23 10 -26 6 -3 10 -17 10 -30 0 -13 4 -26 9 -29 4 -3 11 -28 15 -56 12 -88 24 -103 105 -129 50 -16 79 -14 112 10 22 15 29 28 29 52 0 62 -30 231 -45 253 -8 13 -15 32 -15 43 0 21 -24 69 -62 124 -32 46 -181 197 -194 197 -6 0 -17 7 -24 15 -15 18 -68 45 -89 45 -9 0 -25 6 -36 13 -11 7 -40 19 -65 26 -25 7 -54 17 -65 21 -31 13 -208 23 -330 19 -196 -7 -589 -4 -640 4 -27 5 -59 12 -70 17 -52 22 -127 41 -151 38 -35 -4 -54 -59 -54 -158 0 -74 22 -258 40 -335 5 -22 12 -53 16 -70 4 -16 10 -35 15 -41 5 -6 9 -26 11 -45 1 -19 10 -47 20 -64 10 -16 18 -36 18 -44 0 -8 11 -37 24 -65 39 -83 56 -124 56 -131 0 -3 14 -26 30 -50 17 -24 30 -47 30 -51 0 -3 24 -39 53 -78 61 -84 190 -214 248 -253 23 -16 47 -31 53 -35 46 -32 142 -78 161 -78 13 0 26 -4 29 -9 13 -20 242 -43 361 -35 79 5 188 28 250 54 59 24 145 68 182 92 23 15 90 51 150 80 l108 52 160 7 c167 7 271 23 365 57 8 3 24 7 35 9 11 2 24 8 29 13 6 6 17 10 25 10 14 0 185 83 253 123 151 89 377 319 448 455 12 23 26 45 31 48 12 7 59 103 59 120 0 6 7 14 15 18 9 3 15 18 15 35 0 16 5 33 10 36 6 3 10 16 10 29 0 12 4 26 9 32 10 10 52 171 57 219 11 117 14 322 5 395 -6 47 -14 108 -17 135 -3 28 -9 55 -13 60 -4 6 -16 37 -26 70 -10 33 -21 64 -26 69 -5 6 -9 17 -9 26 0 20 -66 155 -101 207 -16 23 -29 44 -29 48 0 13 -154 199 -199 240 -95 88 -230 180 -360 247 -74 37 -143 68 -152 68 -10 0 -21 5 -24 10 -3 6 -24 10 -45 10 -21 0 -41 4 -44 9 -3 5 -50 17 -103 27 -76 14 -142 18 -290 17 -105 0 -207 -6 -225 -11 -18 -6 -51 -13 -73 -16 -51 -6 -187 -39 -230 -56 -11 -4 -40 -14 -65 -21 -25 -7 -67 -23 -94 -36 -28 -13 -55 -23 -60 -23 -14 0 -232 -110 -291 -147 -179 -111 -352 -239 -489 -363 -164 -147 -540 -543 -617 -649 -14 -20 -34 -43 -44 -51 -10 -8 -37 -40 -59 -71 -69 -94 -152 -185 -363 -394 -199 -197 -257 -252 -311 -286 -15 -10 -65 -47 -112 -83 -47 -36 -91 -66 -97 -66 -7 0 -13 -3 -13 -7 0 -5 -10 -13 -23 -19 -22 -11 -89 -48 -137 -75 -14 -8 -32 -19 -40 -26 -8 -6 -42 -22 -75 -34 -33 -12 -75 -31 -93 -41 -18 -10 -41 -18 -51 -18 -10 0 -21 -3 -24 -6 -12 -12 -112 -43 -139 -44 -15 0 -29 -4 -32 -9 -3 -4 -29 -12 -58 -16 -29 -4 -80 -12 -113 -17 -158 -25 -476 -17 -510 13 -5 5 -18 9 -30 9 -26 0 -150 45 -193 70 -18 11 -37 18 -42 15 -5 -3 -11 -1 -15 5 -3 5 -25 19 -48 29 -24 11 -51 29 -61 40 -11 12 -25 21 -31 21 -26 0 -242 226 -303 317 -34 51 -62 95 -62 98 0 3 -9 27 -21 53 -39 86 -47 107 -63 162 -27 95 -35 142 -41 250 -10 160 19 382 60 464 8 16 15 40 15 53 0 12 5 23 10 23 6 0 10 6 10 14 0 13 87 175 99 186 4 3 18 23 33 45 53 81 271 285 304 285 4 0 21 11 38 24 39 30 151 86 170 86 9 0 30 8 48 18 18 9 47 19 63 21 17 2 37 7 45 11 9 5 68 16 133 25 158 23 320 13 512 -30 39 -9 82 -19 98 -22 15 -3 30 -9 33 -14 3 -5 15 -9 28 -9 30 0 213 -63 260 -90 20 -11 43 -20 51 -20 8 0 15 -4 15 -10 0 -5 10 -10 21 -10 12 0 42 -11 68 -24 58 -30 164 -79 216 -100 22 -10 48 -21 57 -26 77 -42 110 38 48 114 -44 54 -168 166 -194 175 -6 2 -19 10 -28 19 -23 20 -289 152 -306 152 -7 0 -23 5 -35 12 -34 19 -90 38 -112 38 -12 0 -25 4 -30 9 -6 5 -19 11 -30 13 -14 2 2 14 55 41 41 20 82 37 91 37 8 0 20 5 25 10 6 6 46 15 90 20 165 21 374 -24 467 -100 7 -5 32 -24 57 -43 24 -18 64 -57 88 -87 24 -30 50 -63 58 -73 8 -9 14 -20 14 -23 0 -3 13 -24 29 -47 33 -49 81 -141 81 -157 0 -6 9 -29 19 -51 11 -22 23 -53 26 -69 4 -17 11 -32 16 -35 5 -4 9 -17 9 -30 0 -13 4 -26 9 -29 5 -3 11 -23 14 -43 11 -71 18 -108 27 -128 5 -11 11 -39 14 -62 7 -46 0 -52 -37 -31 -16 9 -128 13 -427 14 -391 1 -484 6 -504 25 -6 5 -16 9 -24 9 -37 0 -141 63 -193 117 -87 91 -121 159 -139 275 -12 79 -29 110 -74 131 -54 26 -142 26 -161 1 -35 -47 -6 -253 55 -389 36 -81 167 -245 196 -245 6 0 19 -9 28 -19 10 -11 33 -27 52 -36 19 -9 34 -20 34 -25 0 -6 11 -10 25 -10 13 0 39 -8 57 -18 116 -64 225 -72 783 -61 212 4 406 -14 441 -43 7 -5 34 -11 62 -15 49 -5 51 -5 67 26 34 67 3 459 -44 566 -5 11 -13 34 -17 50 -11 45 -11 46 -32 100 -20 54 -48 120 -63 147 -5 10 -9 22 -9 28 0 6 -16 33 -35 61 -19 28 -35 55 -35 60 0 10 -48 82 -95 142 -59 77 -200 207 -223 207 -5 0 -16 7 -23 16 -21 26 -167 90 -259 114 -92 25 -322 39 -350 22z" fill="#1e4730"/>
<path d="M5684 7359 c-54 -13 -62 -31 -74 -189 -34 -410 -44 -995 -24 -1340 5 -91 7 -430 4 -755 -3 -324 -3 -600 -1 -613 7 -41 44 -50 227 -54 184 -3 184 -3 214 52 28 51 33 135 37 585 l4 460 167 1 c92 0 186 5 210 11 115 29 230 112 305 223 17 25 34 47 38 50 18 13 99 186 128 275 41 124 49 169 61 320 13 163 -3 362 -38 470 -43 134 -115 232 -239 326 -77 58 -155 101 -248 134 -119 44 -642 73 -771 44z m531 -480 c129 -17 170 -25 195 -40 36 -21 85 -74 104 -113 23 -50 21 -223 -5 -356 -11 -58 -23 -120 -26 -138 -3 -18 -9 -35 -14 -38 -5 -3 -9 -12 -9 -21 0 -25 -47 -81 -91 -109 -37 -23 -50 -25 -163 -26 -68 0 -129 2 -135 6 -13 8 -14 108 -4 550 l6 308 36 -7 c20 -3 68 -11 106 -16z" fill="#1e4730"/>
<path d="M7710 7350 c-152 -21 -208 -36 -237 -67 -27 -28 -31 -44 -37 -143 -2 -41 -9 -154 -15 -250 -21 -350 -31 -862 -31 -1641 l0 -797 28 -10 c28 -10 74 -22 155 -41 26 -6 79 -11 117 -11 83 0 115 16 138 70 44 102 54 219 59 677 4 379 6 422 20 425 9 2 61 -1 116 -7 l100 -10 15 -45 c8 -25 18 -53 23 -62 5 -10 9 -26 9 -36 0 -10 3 -21 6 -25 6 -6 51 -137 73 -217 7 -25 17 -54 21 -65 5 -11 11 -31 13 -45 3 -14 13 -52 22 -85 10 -33 22 -80 27 -105 29 -143 43 -217 57 -295 15 -87 28 -125 53 -152 21 -22 26 -23 203 -23 127 0 185 4 193 12 26 26 2 203 -48 364 -6 17 -10 39 -10 49 0 10 -4 32 -9 49 -5 17 -14 49 -20 71 -36 139 -128 425 -142 439 -5 6 -9 19 -9 31 0 12 -4 25 -8 31 -4 5 -14 27 -21 49 -7 22 -16 49 -21 60 -4 11 -20 51 -34 90 l-26 70 53 50 c85 81 153 169 187 242 18 37 36 76 41 85 5 10 9 25 9 33 0 8 4 23 9 33 38 71 61 335 42 462 -14 96 -31 170 -42 192 -5 10 -9 27 -9 37 0 11 -4 23 -10 26 -5 3 -10 15 -10 26 0 10 -4 27 -10 37 -5 9 -20 40 -33 67 -46 95 -57 112 -104 156 -55 52 -133 97 -213 124 -30 10 -64 21 -75 26 -11 4 -33 10 -50 14 -16 3 -48 10 -70 16 -119 28 -354 37 -495 19z m397 -441 c43 -6 82 -15 88 -20 5 -5 17 -9 26 -9 28 0 77 -68 89 -124 37 -173 7 -501 -54 -591 -52 -77 -91 -93 -308 -121 l-46 -6 -7 43 c-12 82 14 804 31 830 7 12 87 11 181 -2z" fill="#1e4730"/>
<path d="M11161 7348 c-59 -16 -67 -44 -83 -313 -23 -357 -12 -2174 13 -2375 13 -108 44 -141 154 -168 69 -17 672 -20 702 -4 12 7 33 12 47 12 14 0 28 4 31 10 3 6 13 10 21 10 24 0 140 78 177 119 42 47 63 90 72 151 10 67 21 134 39 245 10 55 22 130 27 168 5 37 14 100 19 140 12 81 25 184 41 332 27 254 -9 954 -61 1163 -31 126 -113 244 -244 350 -62 50 -201 104 -316 123 -166 27 -584 51 -639 37z m551 -488 c100 -37 141 -87 189 -230 47 -140 63 -338 64 -775 0 -313 -5 -400 -34 -652 -12 -104 -57 -191 -143 -274 -91 -89 -123 -104 -223 -104 l-79 0 -8 35 c-4 19 -10 184 -13 365 -10 504 22 1276 64 1570 6 39 10 73 11 78 0 15 120 7 172 -13z" fill="#1e4730"/>
<path d="M15285 7354 c-242 -58 -406 -182 -479 -364 -10 -25 -22 -54 -26 -65 -5 -11 -11 -42 -15 -70 -21 -158 -26 -202 -37 -320 -16 -165 -16 -516 1 -710 7 -82 16 -208 21 -280 19 -285 33 -395 65 -510 30 -108 48 -172 61 -214 20 -66 100 -186 166 -247 52 -48 119 -89 172 -107 88 -30 259 -18 338 24 10 5 24 9 31 9 20 0 115 49 178 91 66 44 158 143 195 208 70 125 114 332 114 535 0 127 -1 134 -24 159 -31 34 -70 40 -207 34 -151 -7 -187 -14 -201 -41 -7 -11 -20 -75 -30 -141 -19 -132 -37 -215 -50 -229 -4 -6 -8 -16 -8 -24 0 -25 -50 -116 -82 -149 -58 -60 -123 -53 -178 20 -33 43 -52 89 -79 187 -19 70 -25 232 -25 630 0 445 5 532 45 750 34 180 57 242 118 308 49 54 96 68 172 52 63 -14 105 -48 113 -93 14 -78 26 -174 26 -211 0 -53 17 -147 29 -159 5 -5 24 -12 42 -17 19 -5 60 -15 92 -24 32 -9 96 -16 144 -16 77 0 90 3 119 25 61 47 62 123 5 360 -36 152 -173 398 -254 459 -50 37 -151 86 -222 107 -22 6 -50 15 -63 20 -26 10 -237 21 -267 13z" fill="#1e4730"/>
<path d="M19075 7354 c-88 -21 -120 -32 -196 -68 -68 -32 -180 -123 -205 -166 -10 -16 -21 -30 -25 -30 -9 0 -70 -135 -81 -179 -9 -36 -21 -115 -38 -246 -5 -38 -14 -154 -21 -256 -11 -185 -6 -385 22 -729 5 -63 13 -176 19 -250 15 -214 30 -309 70 -445 7 -22 14 -55 17 -73 3 -18 9 -35 14 -38 5 -3 9 -15 9 -27 0 -29 59 -144 95 -187 137 -159 230 -210 383 -210 121 0 298 62 428 151 83 57 214 227 214 279 0 10 4 21 9 24 5 3 11 16 14 28 3 13 12 50 22 83 19 70 34 222 35 348 0 109 -14 142 -68 156 -45 13 -224 14 -272 2 -19 -5 -48 -12 -63 -15 -35 -8 -47 -37 -58 -141 -10 -102 -30 -207 -41 -219 -4 -6 -8 -18 -8 -28 0 -10 -4 -26 -9 -36 -53 -107 -67 -130 -90 -150 -34 -29 -55 -35 -96 -28 -79 15 -141 137 -164 326 -60 484 -15 1307 83 1511 59 125 139 175 239 150 92 -23 116 -63 129 -211 4 -52 11 -128 14 -167 7 -78 15 -90 66 -103 18 -5 59 -15 91 -24 32 -9 96 -16 143 -16 100 0 134 17 160 78 16 38 13 76 -17 227 -41 205 -142 410 -259 523 -38 37 -157 99 -230 121 -25 7 -55 17 -67 22 -26 9 -238 20 -268 13z" fill="#1e4730"/>
<path d="M16760 7340 c-14 -4 -54 -8 -90 -9 -47 -1 -75 -7 -99 -22 -33 -20 -33 -21 -27 -70 4 -28 11 -58 16 -67 5 -10 25 -62 45 -117 20 -55 40 -109 45 -120 5 -11 16 -40 24 -65 8 -25 20 -58 26 -75 19 -46 27 -67 40 -105 7 -19 16 -44 20 -55 5 -11 20 -54 35 -95 15 -41 30 -84 35 -95 4 -11 13 -36 20 -55 7 -19 16 -44 20 -55 5 -11 21 -54 36 -95 26 -73 41 -109 89 -215 74 -166 88 -266 75 -550 -15 -325 -14 -1003 1 -1021 23 -28 54 -38 149 -46 258 -21 260 -21 286 -7 55 29 54 22 54 636 0 750 5 798 95 1018 7 17 18 46 25 65 7 19 16 44 20 55 4 11 20 52 35 90 27 71 37 96 54 138 5 12 30 78 56 147 26 69 50 134 55 145 7 18 49 128 70 180 4 11 12 31 18 45 15 35 69 180 88 237 22 63 24 154 4 178 -14 16 -29 17 -185 11 -206 -8 -245 -13 -252 -35 -8 -25 -44 -122 -60 -161 -22 -53 -28 -68 -63 -160 -18 -47 -39 -98 -45 -115 -14 -34 -119 -310 -129 -338 -3 -10 -11 -17 -17 -15 -10 3 -17 20 -50 128 -18 58 -61 179 -87 240 -5 14 -40 100 -77 191 -95 236 -128 270 -259 268 -39 -1 -82 -5 -96 -9z" fill="#1e4730"/>
<path d="M20480 7338 c-62 -26 -74 -35 -89 -68 -14 -31 -17 -148 -23 -950 -6 -809 -11 -1049 -34 -1573 -7 -146 -3 -169 32 -200 62 -54 333 -83 684 -73 244 8 291 17 337 71 32 38 33 40 33 133 l0 95 -34 32 c-34 32 -34 32 -172 38 -75 4 -208 7 -294 7 l-157 0 -7 175 c-4 96 -2 606 5 1133 6 527 9 983 5 1013 -5 34 -17 68 -34 92 -24 35 -41 48 -104 79 -24 11 -117 9 -148 -4z" fill="#1e4730"/>
<path d="M22160 7341 c-190 -6 -207 -8 -236 -28 -45 -32 -53 -44 -71 -109 -20 -74 -24 -560 -5 -664 28 -158 34 -299 29 -665 -7 -468 -24 -1045 -32 -1100 -4 -23 -1 -86 5 -141 22 -185 29 -188 349 -180 637 17 886 29 914 43 37 19 67 70 67 115 0 50 -28 155 -53 200 -37 68 -55 71 -437 67 l-335 -4 0 385 0 385 247 10 c226 9 249 12 275 31 35 26 46 85 41 226 -3 91 -5 99 -31 125 l-27 28 -260 3 c-256 3 -260 3 -272 25 -28 48 -10 739 19 768 6 6 131 14 309 19 308 10 338 12 390 35 73 33 83 69 74 253 -5 117 -10 145 -25 162 -18 19 -28 20 -374 18 -196 -1 -448 -4 -561 -7z" fill="#1e4730"/>
<path d="M9906 7323 c-9 -9 -77 -33 -96 -33 -8 0 -62 -23 -119 -50 -85 -41 -116 -63 -175 -122 -115 -116 -153 -207 -185 -453 -5 -39 -12 -82 -15 -95 -52 -220 -80 -1153 -45 -1430 38 -289 198 -479 514 -610 116 -49 230 -64 292 -39 15 6 37 15 48 19 11 4 47 20 79 35 162 73 296 213 351 370 31 86 37 148 64 593 6 95 16 241 22 325 7 84 13 337 13 567 1 379 -1 421 -18 480 -10 36 -23 69 -27 75 -5 5 -9 15 -9 22 0 25 -73 129 -129 183 -58 57 -162 117 -241 140 -25 7 -58 16 -74 21 -34 11 -240 12 -250 2z m131 -478 c39 -27 66 -103 74 -210 30 -397 -15 -1551 -62 -1581 -5 -3 -9 -14 -9 -24 0 -10 -14 -32 -31 -49 -26 -27 -38 -31 -83 -31 -64 0 -78 13 -105 96 -30 93 -40 239 -45 694 -6 476 2 628 42 815 47 213 49 220 82 250 18 17 91 52 110 54 3 1 15 -6 27 -14z" fill="#1e4730"/>
<path d="M13902 7320 c-18 -4 -35 -9 -37 -11 -17 -18 -27 -339 -35 -1079 -7 -721 -11 -867 -24 -930 -23 -107 -37 -162 -46 -185 -4 -11 -14 -40 -21 -65 -9 -29 -30 -62 -61 -92 -47 -47 -48 -48 -112 -48 -65 0 -102 14 -162 60 -54 41 -83 119 -103 281 -7 56 -11 412 -11 1051 l0 967 -26 20 c-24 19 -40 21 -176 21 -173 0 -193 -6 -227 -73 l-23 -44 6 -489 c11 -884 24 -1488 35 -1549 11 -68 22 -113 41 -170 21 -66 25 -76 76 -180 42 -86 62 -113 139 -191 98 -98 164 -138 285 -168 63 -16 260 -24 281 -11 5 3 34 13 65 21 56 14 86 26 174 67 67 32 189 159 227 237 38 76 77 193 91 270 34 177 35 221 27 814 -8 656 -9 611 7 901 7 116 12 293 13 395 l0 185 -185 2 c-102 0 -200 -2 -218 -7z" fill="#1e4730"/>
</g>
</svg>